# xmcd
#
# Track frame offsets:
#	150
#	12587
#	25989
#	39257
#	55265
#	70700
#	84958
#	100621
#	110959
#	124246
#	138658
#	152557
#	170025
#	181841
#	198745
#	214809
#	230826
#
# Disc length: 3266 seconds
#
# Revision: 1
# Processed by: cddbd v1.5.2PL0 Copyright (c) Steve Scherf et al.
# Submitted via: audiograbber 1.83.01
#
DISCID=f20cc011
DTITLE=George Strait - Chartbuster Karaoke Disk 1
DYEAR=1900
DGENRE=Country
TTITLE0=The Fireman
TTITLE1=Fool Hearted Memory
TTITLE2=Amarillo By Morning
TTITLE3=You look So Good In love
TTITLE4=All My Ex's Live In Texas
TTITLE5=A Fire I Can't Put Out
TTITLE6=Doe Fort Worth Ever Cross Your Mind
TTITLE7=Right Or Wrong
TTITLE8=The Chair
TTITLE9=Ocean Front Property
TTITLE10=Nobody In His Right Mind Would've Left Her
TTITLE11=Famous Last Words Of A Fool
TTITLE12=If You Ain't Lovin'(You Ain't Livin')
TTITLE13=Baby Blue
TTITLE14=Baby's Gotten Good At Goodbye
TTITLE15=What's going On In Your World
TTITLE16=You Know Me Better than That
EXTD=
EXTT0=
EXTT1=
EXTT2=
EXTT3=
EXTT4=
EXTT5=
EXTT6=
EXTT7=
EXTT8=
EXTT9=
EXTT10=
EXTT11=
EXTT12=
EXTT13=
EXTT14=
EXTT15=
EXTT16=
PLAYORDER=
